<svg width="96" height="96" fill="none" xmlns="http://www.w3.org/2000/svg"><path d="M81.592 17.544c-3.284-1.792-8.36 1.192-11.348 6.568l-5.672 9.556c-2.092 3.88-1.792 8.66.896 12.54l.3.3a92.598 92.598 0 0 0 7.164 8.36c.6.6 1.196 1.492 1.492 2.688.896 3.284-.896 6.868-4.48 7.76-3.28.9-6.864-.892-7.76-4.476-.3-.896-.3-1.792-.3-2.388.3-1.492-.296-3.584-2.388-5.972-2.088-2.092-5.972 2.088-7.464 6.268v.3c-1.196 4.18-2.092 8.064-1.792 8.36 0 .3.3.3.3.6 1.792 3.58.596 7.76-2.988 9.552-3.584 1.792-7.76.6-9.556-2.984-1.792-3.584-.6-7.764 2.988-9.556.296 0 .296-.3.596-.3s.896-1.792 1.792-4.18c.6-2.088.896-2.984 1.196-3.88.296-1.196.896-4.18.596-5.376-.3-1.492-1.792-1.492-3.284-.6-.896.6-2.688 2.092-3.284 2.692a11.592 11.592 0 0 0-3.288 4.48 9.082 9.082 0 0 1-1.492 2.088 6.544 6.544 0 0 1-8.96-.896 6.544 6.544 0 0 1 .9-8.96c.896-.596 1.792-1.192 2.684-1.192 1.496-.3 6.868-3.584 10.156-5.972.596-.3 1.492-1.196 1.792-1.492.892-1.196 0-2.092-.896-2.092-2.688.3-5.676.6-6.272 1.492-.3.3-.6.896-1.196 1.196-2.388 1.792-5.972 1.196-7.76-1.196-1.796-2.388-1.2-5.972 1.192-7.76.896-.9 2.388-1.2 3.284-1.2 2.092 0 7.464 1.2 11.644.3l1.196-.296c4.48-.896 9.856-4.78 11.944-8.66 0 0 2.092-3.584 4.48-8.064 2.688-4.48 2.388-9.552-.3-11.048L52.628 1.12c-2.688-1.492-6.568-1.492-9.256 0L8.732 20.828c-2.68 1.492-4.772 5.076-4.772 8.06v38.22c0 2.988 2.092 6.572 4.78 8.064L43.376 94.88c2.688 1.492 6.868 1.492 9.256 0l34.64-19.708c2.684-1.492 4.776-5.076 4.776-8.06V28.888c0-2.984-2.092-6.568-4.776-8.06 0 0-2.396-1.492-5.68-3.284Z" fill="#00A99D"/></svg>