<svg width="96" height="96" fill="none" xmlns="http://www.w3.org/2000/svg"><path d="M48 62.25a14.25 14.25 0 1 0 0-28.499 14.25 14.25 0 0 0 0 28.499Zm0-24a9.75 9.75 0 1 1 0 19.499 9.75 9.75 0 0 1 0-19.499Zm42-16.5H6A2.25 2.25 0 0 0 3.75 24v48A2.25 2.25 0 0 0 6 74.25h84A2.25 2.25 0 0 0 92.25 72V24A2.25 2.25 0 0 0 90 21.75ZM8.25 40.807A20.524 20.524 0 0 0 22.808 26.25h50.384A20.524 20.524 0 0 0 87.75 40.807v14.386A20.524 20.524 0 0 0 73.192 69.75H22.808A20.524 20.524 0 0 0 8.25 55.193V40.806Zm79.5-4.698a16.051 16.051 0 0 1-9.859-9.859h9.859v9.859ZM18.109 26.25a16.051 16.051 0 0 1-9.859 9.859V26.25h9.859ZM8.25 59.891a16.05 16.05 0 0 1 9.859 9.859H8.25v-9.859Zm69.641 9.859a16.05 16.05 0 0 1 9.859-9.859v9.859h-9.859Z" fill="#9F6F46"/></svg>