<svg width="96" height="96" viewBox="0 0 96 96" fill="none" xmlns="http://www.w3.org/2000/svg">
<path d="M48 9.75C40.4349 9.75 33.0396 11.9933 26.7494 16.1963C20.4592 20.3993 15.5566 26.3731 12.6616 33.3624C9.76654 40.3516 9.00907 48.0424 10.4849 55.4622C11.9608 62.882 15.6038 69.6975 20.9532 75.0468C26.3025 80.3962 33.118 84.0392 40.5378 85.515C47.9576 86.9909 55.6484 86.2334 62.6376 83.3384C69.6269 80.4433 75.6007 75.5407 79.8037 69.2506C84.0067 62.9604 86.25 55.5651 86.25 48C86.2381 37.8591 82.2044 28.137 75.0337 20.9663C67.863 13.7956 58.1409 9.76191 48 9.75ZM48 81.75C41.3249 81.75 34.7997 79.7706 29.2495 76.0621C23.6993 72.3536 19.3735 67.0826 16.8191 60.9156C14.2646 54.7486 13.5962 47.9626 14.8985 41.4157C16.2007 34.8688 19.4151 28.8552 24.1351 24.1351C28.8552 19.4151 34.8688 16.2007 41.4157 14.8985C47.9625 13.5962 54.7485 14.2646 60.9156 16.8191C67.0826 19.3735 72.3536 23.6993 76.0621 29.2495C79.7706 34.7997 81.75 41.3249 81.75 48C81.7401 56.948 78.1811 65.5267 71.8539 71.8539C65.5267 78.1811 56.948 81.7401 48 81.75ZM71.25 48C71.25 48.5967 71.0129 49.169 70.591 49.591C70.169 50.0129 69.5967 50.25 69 50.25H48C47.4032 50.25 46.831 50.0129 46.409 49.591C45.987 49.169 45.75 48.5967 45.75 48V27C45.75 26.4033 45.987 25.831 46.409 25.409C46.831 24.9871 47.4032 24.75 48 24.75C48.5967 24.75 49.169 24.9871 49.591 25.409C50.0129 25.831 50.25 26.4033 50.25 27V45.75H69C69.5967 45.75 70.169 45.9871 70.591 46.409C71.0129 46.831 71.25 47.4033 71.25 48Z" fill="#9F6F46"/>
</svg>
