<svg width="96" height="96" fill="none" xmlns="http://www.w3.org/2000/svg"><path d="M78 30.75H65.25V21a17.25 17.25 0 1 0-34.5 0v9.75H18A5.25 5.25 0 0 0 12.75 36v42A5.25 5.25 0 0 0 18 83.25h60A5.25 5.25 0 0 0 83.25 78V36A5.25 5.25 0 0 0 78 30.75ZM35.25 21a12.75 12.75 0 0 1 25.5 0v9.75h-25.5V21Zm43.5 57a.75.75 0 0 1-.75.75H18a.75.75 0 0 1-.75-.75V36a.75.75 0 0 1 .75-.75h60a.75.75 0 0 1 .75.75v42ZM48 42.75a9.75 9.75 0 0 0-2.25 19.234V69a2.25 2.25 0 0 0 4.5 0v-7.016A9.75 9.75 0 0 0 48 42.75Zm0 15a5.25 5.25 0 1 1 0-10.499 5.25 5.25 0 0 1 0 10.499Z" fill="#9F6F46"/></svg>